# AST/ASF file generated using VICON BodyLanguage
# -----------------------------------------------
:version 1.10
:name VICON
:units
  mass 1.0
  length 0.45
  angle deg
:documentation
   .ast/.asf automatically generated from VICON data using
   VICON BodyBuilder and BodyLanguage model FoxedUp or BRILLIANT.MOD
:root
   order TX TY TZ RX RY RZ
   axis XYZ
   position 0 0 0  
   orientation 0 0 0 
:bonedata
  begin
     id 1 
     name lhipjoint
     direction 0.561145 -0.797705 0.220866 
     length 2.46425 
     axis 0 0 0  XYZ
  end
  begin
     id 2 
     name lfemur
     direction 0.34202 -0.939693 0  
     length 7.95556  
     axis 0 0 20  XYZ
    dof rx ry rz
    limits (-160.0 20.0)
           (-70.0 70.0)
           (-60.0 70.0)
  end
  begin
     id 3 
     name ltibia
     direction 0.34202 -0.939693 0   
     length 7.9832   
     axis 0 0 20   XYZ
    dof rx
    limits (-10.0 170.0)
  end
  begin
     id 4 
     name lfoot
     direction 0.0723927 -0.198897 0.977343   
     length 2.23085   
     axis -90 7.62852e-016 20   XYZ
    dof rx rz
    limits (-45.0 90.0)
           (-70.0 20.0)
  end
  begin
     id 5 
     name ltoes
     direction 1.53826e-011 -4.21988e-011 1   
     length 1.12127   
     axis -90 7.62852e-016 20   XYZ
    dof rx
    limits (-90.0 20.0)
  end
  begin
     id 6 
     name rhipjoint
     direction -0.610499 -0.763299 0.21134   
     length 2.57533  
     axis 0 0 0  XYZ 
  end
  begin
     id 7 
     name rfemur
     direction -0.34202 -0.939693 0   
     length 8.65257   
     axis 0 0 -20   XYZ
    dof rx ry rz
    limits (-160.0 20.0)
           (-70.0 70.0)
           (-70.0 60.0)
  end
  begin
     id 8 
     name rtibia
     direction -0.342021 -0.939692 0   
     length 7.37807   
     axis 0 0 -20   XYZ
    dof rx
    limits (-10.0 170.0)
 end
 begin
     id 9 
     name rfoot
     direction -0.0239304 -0.0543852 0.998233   
     length 1.87018  
     axis -90 -7.62852e-016 -20   XYZ
    dof rx rz
    limits (-45.0 90.0)
           (-20.0 70.0)
  end
  begin
     id 10 
     name rtoes
     direction -1.53584e-011 -4.2242e-011 1   
     length 0.951568   
     axis -90 -7.62852e-016 -20   XYZ
    dof rx
    limits (-90.0 20.0)
  end
  begin
     id 11 
     name lowerback
     direction 0.00322089 0.999033 0.0438587   
     length 2.07568   
     axis 0 0 0   XYZ
    dof rx ry rz
    limits (-20.0 45.0)
           (-30.0 30.0)
           (-30.0 30.0)
  end
  begin
     id 12 
     name upperback
     direction -0.00321932 0.999732 -0.0229403   
     length 2.06253   
     axis 0 0 0   XYZ
    dof rx ry rz
    limits (-20.0 45.0)
           (-30.0 30.0)
           (-30.0 30.0)
  end
  begin
     id 13 
     name thorax
     direction -0.00537537 0.998955 -0.0453918   
     length 2.06975   
     axis 0 0 0   XYZ
    dof rx ry rz
    limits (-20.0 45.0)
           (-30.0 30.0)
           (-30.0 30.0)
  end
  begin
     id 14 
     name lowerneck
     direction -0.00013604 0.994111 0.108363   
     length 1.50836   
     axis 0 0 0   XYZ
    dof rx ry rz
    limits (-20.0 45.0)
           (-30.0 30.0)
           (-30.0 30.0)
  end
  begin
     id 15 
     name upperneck
     direction 0.0397262 0.983859 -0.174482   
     length 1.53037   
     axis 0 0 0   XYZ
    dof rx ry rz
    limits (-20.0 45.0)
           (-30.0 30.0)
           (-30.0 30.0)
  end
  begin
     id 16
     name head
     direction 0.0109991 0.997082 -0.0755378  
     length 1.56928  
     axis 0 0 0   XYZ
    dof rx ry rz
    limits (-20.0 45.0)
           (-30.0 30.0)
           (-30.0 30.0)
  end
  begin
     id 17 
     name lclavicle
     direction 0.964749 0.254 -0.068874  
     length 3.26503  
     axis 0 0 0   XYZ
    dof ry rz
    limits (-20.0 10.0)
           (0.0 20.0)
  end
  begin
     id 18 
     name lhumerus
     direction 1 -4.48941e-011 -2.05079e-027   
     length 5.68236   
     axis 180 -30 -90   XYZ
    dof rx ry rz
    limits (-60.0 90.0)
           (-90.0 90.0)
           (-90.0 90.0)
  end
  begin
     id 19
     name lradius
     direction 1 -4.48956e-011 6.2882e-027   
     length 3.17112   
     axis 180 -30 -90   XYZ
    dof rx
    limits (-10.0 170.0)
  end
  begin
     id 20
     name lwrist
     direction 1 -4.49014e-011 1.73219e-026   
     length 1.58556   
     axis -1.04724e-014 90 90   XYZ
    dof ry
    limits (-180.0 0.0)
 end
  begin
     id 21 
     name lhand
     direction 1 -4.49312e-011 3.46438e-026   
     length 0.632691   
     axis -2.21057e-014 90 90   XYZ
    dof rx rz
    limits (-90.0 90.0)
           (-45.0 45.0)
  end
  begin
     id 22 
     name lfingers
     direction 1 -4.48894e-011 6.92876e-026   
     length 0.510091   
     axis -4.42114e-014 90 90   XYZ
    dof rx
    limits (0.0 90.0)
  end
  begin
     id 23
     name lthumb
     direction 0.707107 -6.34705e-011 0.707107   
     length 0.732392   
     axis -90 45 2.85299e-015   XYZ
    dof rx rz
    limits (-45.0 45.0)
           (-45.0 45.0)
  end
  begin
     id 24 
     name rclavicle
     direction -0.954374 0.280496 -0.102435   
     length 3.25419  
     axis 0 0 0   XYZ 
    dof ry rz
    limits (-10.0 20.0)
           (-20.0 0.0)
  end
  begin
     id 25 
     name rhumerus
     direction -1 -4.48994e-011 -1.07204e-017  
     length 5.8712   
     axis 180 30 90   XYZ
    dof rx ry rz
    limits (-90.0 60.0)
           (-90.0 90.0)
           (-90.0 90.0)
  end
  begin
     id 26 
     name rradius
     direction -1 -4.48972e-011 5.89292e-027   
     length 3.37589   
     axis 180 30 90   XYZ
    dof rx
    limits (-10.0 170.0)
  end
  begin
     id 27 
     name rwrist
     direction -1 -4.48942e-011 1.73219e-026   
     length 1.68794   
     axis -1.04724e-014 -90 -90   XYZ
    dof ry
    limits (-180.0 0.0)
  end
  begin
     id 28
     name rhand
     direction -1 -4.48514e-011 3.46438e-026   
     length 0.603257   
     axis -2.21057e-014 -90 -90   XYZ
    dof rx rz
    limits (-90.0 90.0)
           (-45.0 45.0)
  end
  begin
     id 29
     name rfingers
     direction -1 -4.50028e-011 6.92876e-026   
     length 0.486362   
     axis -4.42114e-014 -90 -90   XYZ
    dof rx
    limits (0.0 90.0)
  end
  begin
     id 30
     name rthumb
     direction -0.707107 -6.34926e-011 0.707107   
     length 0.698321   
     axis -90 -45 -2.85299e-015   XYZ
    dof rx rz
    limits (-45.0 45.0)
           (-45.0 45.0)
  end
:hierarchy
  begin
    root lhipjoint rhipjoint lowerback
    lhipjoint lfemur
    lfemur ltibia
    ltibia lfoot
    lfoot ltoes
    rhipjoint rfemur
    rfemur rtibia
    rtibia rfoot
    rfoot rtoes
    lowerback upperback
    upperback thorax
    thorax lowerneck lclavicle rclavicle
    lowerneck upperneck
    upperneck head
    lclavicle lhumerus
    lhumerus lradius
    lradius lwrist
    lwrist lhand lthumb
    lhand lfingers
    rclavicle rhumerus
    rhumerus rradius
    rradius rwrist
    rwrist rhand rthumb
    rhand rfingers
  end

#!OML:ASF I:\Segmentation\Patient Classification 1\Patient 1\Session 1\Patient1.ASF
:FULLY-SPECIFIED
:DEGREES
1648
root 20.4493 15.797 -0.3939 -707.553 -94.4333 334.529
lowerback 14.5637 -2.72105 -6.02538
upperback 12.3566 -5.2219 0.753599
thorax 5.70371 -3.54148 4.58595
lowerneck 3.75265 -3.89867 0.243337
upperneck -3.09602 -5.07473 3.45509
head -1.50828 -2.61302 1.15716
rclavicle 1.16289e-014 3.8763e-015
rhumerus 42.9203 -18.1255 -16.9375
rradius 111.578
rwrist -29.2588
rhand -13.2181 34.1488
rfingers 7.12502
rthumb 12.883 4.56642
lclavicle 1.16289e-014 3.8763e-015
lhumerus -20.9417 -2.72621 85.4376
lradius 51.2294
lwrist 26.146
lhand -20.8806 39.0966
lfingers 7.12502
lthumb 5.4896 69.0055
rfemur -36.2647 -2.41045 16.827
rtibia 59.8335
rfoot -4.44609 1.41542
rtoes 48.3651
lfemur -36.3979 15.7598 -18.5287
ltibia 63.3604
lfoot -15.0323 4.89017
ltoes -2.30204
1649
root 20.4484 15.7985 -0.393649 -707.481 -94.6361 334.386
lowerback 14.6082 -2.76921 -6.10107
upperback 12.3503 -5.29869 0.709188
thorax 5.68672 -3.58447 4.58986
lowerneck 3.95056 -3.9098 0.125433
upperneck -3.13982 -5.09004 3.49912
head -1.55312 -2.62197 1.19771
rclavicle 2.11706e-014 -3.68746e-014
rhumerus 42.8931 -18.0316 -17.0119
rradius 111.609
rwrist -29.4621
rhand -13.0293 34.2385
rfingers 7.12502
rthumb 13.0649 4.66765
lclavicle 2.11706e-014 -3.68746e-014
lhumerus -21.1538 -2.4443 85.344
lradius 51.313
lwrist 26.1354
lhand -20.8406 38.8332
lfingers 7.12502
lthumb 5.52827 68.7411
rfemur -36.2065 -2.23252 16.7725
rtibia 59.8196
rfoot -4.4318 1.41373
rtoes 48.3471
lfemur -36.265 15.9216 -18.5534
ltibia 63.3334
lfoot -15.0402 4.93326
ltoes -2.52712
1650
root 20.4473 15.8 -0.39403 -707.479 -94.8414 334.307
lowerback 14.6666 -2.82142 -6.19538
upperback 12.3477 -5.38517 0.675966
thorax 5.67161 -3.63506 4.61754
lowerneck 4.10563 -3.92315 0.00408928
upperneck -3.17968 -5.11026 3.52215
head -1.58953 -2.63242 1.23119
rclavicle 2.50469e-014 -1.27222e-014
rhumerus 42.8996 -17.9127 -17.0583
rradius 111.609
rwrist -29.4991
rhand -13.0795 34.3498
rfingers 7.12502
rthumb 13.0165 4.7759
lclavicle 2.50469e-014 -1.27222e-014
lhumerus -21.3582 -2.11069 85.2514
lradius 51.394
lwrist 26.1187
lhand -20.8025 38.5678
lfingers 7.12502
lthumb 5.56501 68.4747
rfemur -36.139 -2.0517 16.7248
rtibia 59.8057
rfoot -4.41223 1.40684
rtoes 48.3435
lfemur -36.1198 16.0843 -18.567
ltibia 63.3049
lfoot -15.0617 4.95617
ltoes -2.6624
1651
root 20.4465 15.8012 -0.394877 -707.549 -95.0337 334.308
lowerback 14.7435 -2.88667 -6.3083
upperback 12.332 -5.49214 0.662465
thorax 5.63954 -3.69721 4.68037
lowerneck 4.22707 -3.93418 -0.133518
upperneck -3.19983 -5.13007 3.52788
head -1.61371 -2.64151 1.26064
rclavicle -5.71506e-014 3.81667e-014
rhumerus 42.9408 -17.7453 -17.0726
rradius 111.595
rwrist -29.3802
rhand -13.3699 34.4606
rfingers 7.12502
rthumb 12.7366 4.86907
lclavicle -5.71506e-014 3.81667e-014
lhumerus -21.5775 -1.71792 85.1694
lradius 51.4816
lwrist 26.1025
lhand -20.7972 38.3923
lfingers 7.12502
lthumb 5.57014 68.2991
rfemur -36.0816 -1.87838 16.6884
rtibia 59.7947
rfoot -4.39457 1.38955
rtoes 48.3548
lfemur -35.9899 16.2372 -18.5705
ltibia 63.28
lfoot -15.0966 4.9585
ltoes -2.68359
1652
root 20.4462 15.8019 -0.395958 -707.653 -95.2004 334.37
lowerback 14.8318 -2.96773 -6.43293
upperback 12.2914 -5.62047 0.669378
thorax 5.58094 -3.76933 4.77568
lowerneck 4.33505 -3.94031 -0.290831
upperneck -3.19312 -5.14603 3.52055
head -1.62677 -2.64766 1.28828
rclavicle -5.69518e-014 8.74653e-015
rhumerus 42.9989 -17.5359 -17.057
rradius 111.59
rwrist -29.1993
rhand -13.7697 34.5399
rfingers 7.12502
rthumb 12.3512 4.92478
lclavicle -5.69518e-014 8.74653e-015
lhumerus -21.8287 -1.28477 85.1023
lradius 51.5847
lwrist 26.0933
lhand -20.8336 38.3327
lfingers 7.12502
lthumb 5.53501 68.2404
rfemur -36.0538 -1.72391 16.6642
rtibia 59.7891
rfoot -4.38826 1.3597
rtoes 48.3734
lfemur -35.9003 16.372 -18.5699
ltibia 63.2629
lfoot -15.1329 4.94711
ltoes -2.6035
